<?xml version="1.0" encoding="UTF-8" standalone="no"?>
<svg width="512" height="512" viewBox="0 0 512 512" fill="none" xmlns="http://www.w3.org/2000/svg">
  <rect width="512" height="512" rx="100" fill="#3A86FF"/>
  <circle cx="256" cy="256" r="160" fill="#FFFFFF" fill-opacity="0.15"/>
  <circle cx="256" cy="256" r="120" fill="#FFFFFF" fill-opacity="0.2"/>
  <path d="M256 136C196.111 136 148 184.111 148 244C148 303.889 196.111 352 256 352C315.889 352 364 303.889 364 244C364 184.111 315.889 136 256 136ZM256 324C211.383 324 176 288.617 176 244C176 199.383 211.383 164 256 164C300.617 164 336 199.383 336 244C336 288.617 300.617 324 256 324Z" fill="white"/>
  <path d="M287.856 220H236C232.686 220 230 222.686 230 226V262C230 265.314 232.686 268 236 268H287.856C291.17 268 293.856 265.314 293.856 262V226C293.856 222.686 291.17 220 287.856 220Z" fill="white"/>
  <path d="M256 194C250.477 194 246 198.477 246 204V284C246 289.523 250.477 294 256 294C261.523 294 266 289.523 266 284V204C266 198.477 261.523 194 256 194Z" fill="white"/>
  <path d="M309.856 211.9C309.856 207.553 306.303 204 301.956 204C297.609 204 294.056 207.553 294.056 211.9V276.1C294.056 280.447 297.609 284 301.956 284C306.303 284 309.856 280.447 309.856 276.1V211.9Z" fill="white"/>
  <path d="M229.1 211.9C229.1 207.553 225.547 204 221.2 204C216.853 204 213.3 207.553 213.3 211.9V276.1C213.3 280.447 216.853 284 221.2 284C225.547 284 229.1 280.447 229.1 276.1V211.9Z" fill="white"/>
</svg>